<svg width="72" height="72" viewBox="0 0 72 72" fill="none" xmlns="http://www.w3.org/2000/svg">
<path d="M0 0H72V72H0V0Z" fill="#2E2E2E"/>
<path d="M7.1244 40.9293V40H11.5763V40.9293H9.91673V45.3313H8.78392V40.9293H7.1244Z" fill="white"/>
<path d="M12.3094 45.3313V40H13.4555V42.1997H15.782V40H16.9254V45.3313H15.782V43.129H13.4555V45.3313H12.3094Z" fill="white"/>
<path d="M17.8702 45.3313V40H21.5228V40.9293H19.0163V42.1997H21.3349V43.129H19.0163V44.402H21.5334V45.3313H17.8702Z" fill="white"/>
<path d="M8.551 54.1279L7 48.7966H8.25192L9.14917 52.5009H9.19417L10.1841 48.7966H11.256L12.2432 52.5087H12.2909L13.1881 48.7966H14.44L12.889 54.1279H11.7721L10.7399 50.6423H10.6975L9.66794 54.1279H8.551Z" fill="white"/>
<path d="M15.0534 54.1279V48.7966H18.706V49.7259H16.1995V50.9963H18.518V51.9256H16.1995V53.1986H18.7166V54.1279H15.0534Z" fill="white"/>
<path d="M20.5514 54.1279H19.3233L21.1946 48.7966H22.6715L24.5401 54.1279H23.312L21.9542 50.0149H21.9119L20.5514 54.1279ZM20.4747 52.0323H23.3755V52.9122H20.4747V52.0323Z" fill="white"/>
<path d="M24.3237 49.7259V48.7966H28.7756V49.7259H27.1161V54.1279H25.9832V49.7259H24.3237Z" fill="white"/>
<path d="M29.5087 54.1279V48.7966H30.6548V50.9963H32.9813V48.7966H34.1247V54.1279H32.9813V51.9256H30.6548V54.1279H29.5087Z" fill="white"/>
<path d="M35.0696 54.1279V48.7966H38.7221V49.7259H36.2156V50.9963H38.5342V51.9256H36.2156V53.1986H38.7327V54.1279H35.0696Z" fill="white"/>
<path d="M39.6332 54.1279V48.7966H41.7718C42.1812 48.7966 42.5306 48.8686 42.8199 49.0127C43.1111 49.155 43.3325 49.3572 43.4843 49.6192C43.6378 49.8795 43.7146 50.1858 43.7146 50.5381C43.7146 50.8922 43.6369 51.1967 43.4816 51.4518C43.3264 51.7052 43.1014 51.8996 42.8067 52.035C42.5138 52.1703 42.1591 52.238 41.7427 52.238H40.3108V51.3321H41.5574C41.7762 51.3321 41.958 51.3026 42.1027 51.2436C42.2474 51.1846 42.355 51.0961 42.4256 50.9781C42.4979 50.8601 42.5341 50.7134 42.5341 50.5381C42.5341 50.3611 42.4979 50.2119 42.4256 50.0904C42.355 49.9689 42.2465 49.8769 42.1 49.8145C41.9553 49.7502 41.7727 49.7181 41.5522 49.7181H40.7793V54.1279H39.6332ZM42.5606 51.7017L43.9078 54.1279H42.6426L41.3245 51.7017H42.5606Z" fill="white"/>
<path d="M7.33085 62.9245V57.5932H10.9199V58.5226H8.47689V59.7929H10.6816V60.7222H8.47689V62.9245H7.33085Z" fill="white"/>
<path d="M16.6719 60.2589C16.6719 60.8402 16.5599 61.3348 16.3358 61.7427C16.1135 62.1505 15.81 62.462 15.4253 62.6772C15.0424 62.8907 14.6119 62.9974 14.1337 62.9974C13.652 62.9974 13.2197 62.8898 12.8368 62.6746C12.4539 62.4594 12.1513 62.1479 11.9289 61.7401C11.7066 61.3322 11.5954 60.8385 11.5954 60.2589C11.5954 59.6775 11.7066 59.1829 11.9289 58.7751C12.1513 58.3672 12.4539 58.0566 12.8368 57.8431C13.2197 57.6279 13.652 57.5203 14.1337 57.5203C14.6119 57.5203 15.0424 57.6279 15.4253 57.8431C15.81 58.0566 16.1135 58.3672 16.3358 58.7751C16.5599 59.1829 16.6719 59.6775 16.6719 60.2589ZM15.51 60.2589C15.51 59.8823 15.4527 59.5647 15.338 59.3061C15.225 59.0475 15.0653 58.8514 14.8589 58.7178C14.6524 58.5842 14.4107 58.5174 14.1337 58.5174C13.8567 58.5174 13.6149 58.5842 13.4085 58.7178C13.202 58.8514 13.0415 59.0475 12.9268 59.3061C12.8138 59.5647 12.7574 59.8823 12.7574 60.2589C12.7574 60.6355 12.8138 60.953 12.9268 61.2116C13.0415 61.4702 13.202 61.6663 13.4085 61.7999C13.6149 61.9336 13.8567 62.0004 14.1337 62.0004C14.4107 62.0004 14.6524 61.9336 14.8589 61.7999C15.0653 61.6663 15.225 61.4702 15.338 61.2116C15.4527 60.953 15.51 60.6355 15.51 60.2589Z" fill="white"/>
<path d="M17.5209 62.9245V57.5932H19.6595C20.0688 57.5932 20.4182 57.6652 20.7076 57.8093C20.9987 57.9516 21.2202 58.1538 21.3719 58.4158C21.5254 58.6761 21.6022 58.9825 21.6022 59.3347C21.6022 59.6888 21.5245 59.9933 21.3693 60.2485C21.214 60.5018 20.989 60.6962 20.6943 60.8316C20.4014 60.9669 20.0468 61.0346 19.6303 61.0346H18.1984V60.1287H19.4451C19.6639 60.1287 19.8456 60.0992 19.9903 60.0402C20.135 59.9812 20.2426 59.8927 20.3132 59.7747C20.3856 59.6567 20.4217 59.51 20.4217 59.3347C20.4217 59.1577 20.3856 59.0085 20.3132 58.887C20.2426 58.7655 20.1341 58.6735 19.9877 58.6111C19.843 58.5469 19.6603 58.5147 19.4398 58.5147H18.6669V62.9245H17.5209ZM20.4482 60.4984L21.7954 62.9245H20.5302L19.2122 60.4984H20.4482Z" fill="white"/>
<path d="M22.4121 62.9245V57.5932H26.0646V58.5226H23.5581V59.7929H25.8767V60.7222H23.5581V61.9952H26.0752V62.9245H22.4121Z" fill="white"/>
<path d="M31.7585 59.4597H30.5992C30.578 59.3122 30.5348 59.1812 30.4695 59.0666C30.4042 58.9503 30.3204 58.8514 30.2181 58.7699C30.1157 58.6883 29.9975 58.6258 29.8634 58.5824C29.7311 58.539 29.5872 58.5174 29.432 58.5174C29.1514 58.5174 28.907 58.5859 28.6988 58.723C28.4906 58.8584 28.3291 59.0562 28.2145 59.3165C28.0998 59.5751 28.0424 59.8892 28.0424 60.2589C28.0424 60.6389 28.0998 60.9583 28.2145 61.2168C28.3309 61.4754 28.4932 61.6707 28.7015 61.8025C28.9097 61.9344 29.1505 62.0004 29.424 62.0004C29.5775 62.0004 29.7196 61.9804 29.8502 61.9405C29.9825 61.9006 30.0998 61.8425 30.2022 61.7661C30.3045 61.688 30.3892 61.5934 30.4563 61.4824C30.5251 61.3713 30.5727 61.2446 30.5992 61.1023L31.7585 61.1075C31.7285 61.3522 31.6535 61.5882 31.5335 61.8156C31.4153 62.0412 31.2556 62.2433 31.0544 62.4221C30.855 62.5991 30.6168 62.7397 30.3398 62.8438C30.0645 62.9462 29.7531 62.9974 29.4055 62.9974C28.922 62.9974 28.4897 62.8898 28.1086 62.6746C27.7292 62.4594 27.4293 62.1479 27.2087 61.7401C26.9899 61.3322 26.8805 60.8385 26.8805 60.2589C26.8805 59.6775 26.9917 59.1829 27.214 58.7751C27.4363 58.3672 27.738 58.0566 28.1192 57.8431C28.5003 57.6279 28.9291 57.5203 29.4055 57.5203C29.7196 57.5203 30.0107 57.5637 30.2789 57.6505C30.5489 57.7373 30.788 57.864 30.9962 58.0306C31.2044 58.1954 31.3738 58.3976 31.5044 58.6371C31.6367 58.8766 31.7214 59.1508 31.7585 59.4597Z" fill="white"/>
<path d="M33.4127 62.9245H32.1846L34.0559 57.5932H35.5328L37.4014 62.9245H36.1733L34.8155 58.8115H34.7731L33.4127 62.9245ZM33.3359 60.829H36.2368V61.7088H33.3359V60.829Z" fill="white"/>
<path d="M40.8706 59.1265C40.8494 58.9165 40.7586 58.7534 40.598 58.6371C40.4374 58.5208 40.2195 58.4627 39.9442 58.4627C39.7572 58.4627 39.5993 58.4887 39.4705 58.5408C39.3417 58.5911 39.2429 58.6614 39.174 58.7516C39.107 58.8419 39.0735 58.9443 39.0735 59.0588C39.0699 59.1543 39.0902 59.2376 39.1343 59.3087C39.1802 59.3799 39.2429 59.4415 39.3223 59.4935C39.4017 59.5439 39.4934 59.5881 39.5975 59.6263C39.7016 59.6627 39.8128 59.694 39.931 59.72L40.418 59.8346C40.6545 59.8866 40.8715 59.956 41.0691 60.0428C41.2667 60.1296 41.4379 60.2363 41.5826 60.363C41.7273 60.4897 41.8393 60.6389 41.9187 60.8107C41.9999 60.9825 42.0414 61.1795 42.0431 61.4017C42.0414 61.7279 41.9567 62.0108 41.789 62.2503C41.6232 62.488 41.3832 62.6729 41.0691 62.8048C40.7568 62.9349 40.3801 63 39.9389 63C39.5014 63 39.1202 62.9341 38.7955 62.8022C38.4726 62.6703 38.2203 62.475 38.0386 62.2164C37.8586 61.9561 37.7642 61.6342 37.7554 61.2507H38.8644C38.8767 61.4294 38.9288 61.5787 39.0205 61.6984C39.114 61.8164 39.2384 61.9058 39.3937 61.9665C39.5508 62.0255 39.7281 62.0551 39.9257 62.0551C40.1198 62.0551 40.2883 62.0273 40.4312 61.9718C40.5759 61.9162 40.688 61.839 40.7674 61.7401C40.8468 61.6411 40.8865 61.5275 40.8865 61.3991C40.8865 61.2793 40.8503 61.1787 40.778 61.0971C40.7074 61.0155 40.6033 60.9461 40.4657 60.8888C40.3298 60.8316 40.163 60.7795 39.9654 60.7326L39.3752 60.5869C38.9182 60.4775 38.5573 60.3066 38.2927 60.074C38.028 59.8415 37.8965 59.5282 37.8983 59.1343C37.8965 58.8115 37.9839 58.5295 38.1603 58.2883C38.3385 58.047 38.5829 57.8588 38.8935 57.7234C39.204 57.588 39.5569 57.5203 39.9522 57.5203C40.3545 57.5203 40.7056 57.588 41.0056 57.7234C41.3073 57.8588 41.542 58.047 41.7096 58.2883C41.8773 58.5295 41.9637 58.8089 41.969 59.1265H40.8706Z" fill="white"/>
<path d="M42.6075 58.5226V57.5932H47.0594V58.5226H45.3999V62.9245H44.2671V58.5226H42.6075Z" fill="white"/>
<path d="M50.4519 62.9245H49.2238L51.0951 57.5932H52.5719L54.4406 62.9245H53.2125L51.8547 58.8115H51.8123L50.4519 62.9245ZM50.3751 60.829H53.276V61.7088H50.3751V60.829Z" fill="white"/>
<path d="M55.093 62.9245V57.5932H57.2316C57.6427 57.5932 57.993 57.6705 58.2823 57.8249C58.5717 57.9776 58.7923 58.1902 58.944 58.4627C59.0975 58.7334 59.1743 59.0458 59.1743 59.3998C59.1743 59.7539 59.0967 60.0662 58.9414 60.337C58.7861 60.6077 58.5611 60.8186 58.2664 60.9695C57.9735 61.1205 57.6189 61.196 57.2024 61.196H55.8394V60.2927H57.0172C57.2377 60.2927 57.4195 60.2554 57.5624 60.1808C57.7071 60.1044 57.8147 59.9994 57.8853 59.8658C57.9577 59.7304 57.9938 59.5751 57.9938 59.3998C57.9938 59.2228 57.9577 59.0684 57.8853 58.9365C57.8147 58.8028 57.7071 58.6996 57.5624 58.6267C57.4177 58.5521 57.2342 58.5147 57.0119 58.5147H56.239V62.9245H55.093Z" fill="white"/>
<path d="M59.9187 62.9245V57.5932H62.0573C62.4684 57.5932 62.8187 57.6705 63.108 57.8249C63.3974 57.9776 63.618 58.1902 63.7697 58.4627C63.9232 58.7334 64 59.0458 64 59.3998C64 59.7539 63.9224 60.0662 63.7671 60.337C63.6118 60.6077 63.3868 60.8186 63.0922 60.9695C62.7993 61.1205 62.4446 61.196 62.0282 61.196H60.6651V60.2927H61.8429C62.0634 60.2927 62.2452 60.2554 62.3881 60.1808C62.5328 60.1044 62.6404 59.9994 62.711 59.8658C62.7834 59.7304 62.8195 59.5751 62.8195 59.3998C62.8195 59.2228 62.7834 59.0684 62.711 58.9365C62.6404 58.8028 62.5328 58.6996 62.3881 58.6267C62.2434 58.5521 62.0599 58.5147 61.8376 58.5147H61.0647V62.9245H59.9187Z" fill="white"/>
</svg>
